<svg id="Layer_1" data-name="Layer 1" xmlns="http://www.w3.org/2000/svg" xmlns:xlink="http://www.w3.org/1999/xlink" viewBox="0 0 800 800"><defs><style>.cls-1{fill:none;fill-rule:evenodd;}</style></defs><title>corbin-head</title><image width="800" height="800" xlink:href="../../images/corbin-head.jpg"/><path class="cls-1" d="M686.84,389.8c-9.4-12.06-30.56-17.95-44.8-25-.11-14.92-6.52-26.32-9-41-4.85-29,4.31-63.14-9.6-81.93-11.56-15.61-29.75-12.76-42.25-23.05C604.08,202.2,625,161,609.39,122.24c-13.65-33.85-65.33-77.65-112-77.45l-24.33,3.84-53.13,16A867.67,867.67,0,0,0,204.85,186.25c-28.59,22-57.67,48.22-72.33,83.85-15.75,38.28-26.79,102.27-17.28,156.82,5.12,29.38,8.14,28.16,17.61,53.36,12.15,32.33,33.29,64,54.08,94.51,12.37,15.14,17.71,7.89,30.08,23-1.88-3.21,23.65,10.67,37.13,18.56,51.07,29.89,98.68,65,157.46,105C464,757,520.16,753.92,537.06,747c22.17-9.11,31-36.84,43.53-55.77,35.54-53.57,72.27-121.66,59.53-214.35,35.66,3.47,35.53-22.42,41.6-50.57,1.57-7.25,5.58-19.27,6.41-25C688.8,396.67,684,395.77,686.84,389.8Z"/><path class="cls-1" d="M197.93,617.93c-1.88-3.2,23.65,10.68,37.13,18.56,51.06,29.89,98.18,65.7,157.46,105"/></svg>